<?xml version="1.0" encoding="UTF-8"?>
<svg id="Layer_1" xmlns="http://www.w3.org/2000/svg" xmlns:xlink="http://www.w3.org/1999/xlink" version="1.1" viewBox="0 0 16 16">
  <!-- Generator: Adobe Illustrator 29.5.0, SVG Export Plug-In . SVG Version: 2.1.0 Build 137)  -->
  <defs>
    <style>
      .st0 {
        fill: url(#linear-gradient2);
      }

      .st1 {
        fill: url(#linear-gradient1);
      }

      .st2 {
        fill: url(#linear-gradient);
      }

      .st3 {
        fill: #fff;
      }

      .st4 {
        fill: #262aff;
      }
    </style>
    <linearGradient id="linear-gradient" x1="4.2" y1="12.1" x2="9.1" y2="10.9" gradientTransform="translate(0 18) scale(1 -1)" gradientUnits="userSpaceOnUse">
      <stop offset="0" stop-color="#3fa3de"/>
      <stop offset="1" stop-color="#3fa3de" stop-opacity="0"/>
    </linearGradient>
    <linearGradient id="linear-gradient1" x1="2.7" y1="8.8" x2="6.5" y2="13.7" gradientTransform="translate(0 18) scale(1 -1)" gradientUnits="userSpaceOnUse">
      <stop offset="0" stop-color="#262aff"/>
      <stop offset="1" stop-color="#262aff" stop-opacity="0"/>
    </linearGradient>
    <linearGradient id="linear-gradient2" x1="4.8" y1="11.2" x2="8.4" y2="13.7" gradientTransform="translate(0 18) scale(1 -1)" gradientUnits="userSpaceOnUse">
      <stop offset="0" stop-color="#262aff" stop-opacity=".2"/>
      <stop offset="1" stop-color="#262aff" stop-opacity="0"/>
    </linearGradient>
  </defs>
  <rect class="st3" width="16" height="16" rx="2.5" ry="2.5"/>
  <path class="st4" d="M8.5,11.1c-.5,0-1,0-1.2-.2,0,0-.1-.1-.1-.2,0-.1,0-.2.1-.3.2-.1.4-.2.6-.1.2,0,.4,0,.6,0,1.9,0,3.1-1.1,3.1-2.9s-1.2-2.9-3.1-2.9-3.1,1.1-3.1,2.9.4,1.8,1,2.3c-.3.2-.6.5-.7.8-.1.4,0,.8.3,1.1h0c0,0,0,.1,0,.1-.7.4-1.1.9-1,1.4,0,0,0,.1,0,.2.3,1.1,1.9,1.6,3.5,1.5.9,0,3.4-.4,3.4-2,0-2.1-2.4-1.8-3.4-1.7h-.1ZM8.4,5.9c.8,0,1.3.6,1.3,1.5s-.5,1.5-1.3,1.5-1.3-.6-1.3-1.5.5-1.5,1.3-1.5ZM7.3,12.3s0,0,.1,0c1-.2,2.5-.3,2.9.1.1.1.1.3,0,.5-.1.4-1,.6-1.9.6-.2,0-.5,0-.7,0-.7,0-1.1-.3-1.1-.6,0-.3.4-.5.5-.6"/>
  <path class="st2" d="M10.2,3.3c-2.5-.9-5.3.4-6.3,2.9-.2.5-.3.9-.3,1.4,0,1,.2,2.1.8,2.9.2.4.1.8-.2,1.1-.4.2-.8.1-1.1-.2-2-3-1.2-7.1,1.8-9.1.6-.4,1.2-.7,1.8-.8,1.3-.4,2.8-.4,4.1,0h0c.5.2.7.7.5,1.2-.2.5-.7.7-1.1.6h0"/>
  <path class="st1" d="M10.2,3.3c-2.5-.9-5.3.4-6.3,2.9-.2.5-.3.9-.3,1.4,0,1,.2,2.1.8,2.9.2.4.1.8-.2,1.1-.4.2-.8.1-1.1-.2-2-3-1.2-7.1,1.8-9.1.6-.4,1.2-.7,1.8-.8,1.3-.4,2.8-.4,4.1,0h0c.5.2.7.7.5,1.2-.2.5-.7.7-1.1.6h0"/>
  <path class="st0" d="M10.2,3.3c-2.5-.9-5.3.4-6.3,2.9-.2.5-.3.9-.3,1.4,0,1,.2,2.1.8,2.9.2.4.1.8-.2,1.1-.4.2-.8.1-1.1-.2-2-3-1.2-7.1,1.8-9.1.6-.4,1.2-.7,1.8-.8,1.3-.4,2.8-.4,4.1,0h0c.5.2.7.7.5,1.2-.2.5-.7.7-1.1.6h0"/>
  <path class="st4" d="M11.8,2.6c0,.6-.5,1-1,1s-1-.5-1-1,.5-1,1-1,1,.5,1,1Z"/>
</svg>