<svg width="200" height="28" viewBox="0 0 200 28" fill="none" xmlns="http://www.w3.org/2000/svg">
<path d="M152.166 15.8282C152.23 17.1089 153.362 18.0481 155.176 18.0481C156.713 18.0481 157.802 17.3864 157.802 16.3831C157.802 15.017 156.607 14.9102 154.985 14.7182C152.551 14.4193 150.608 13.9283 150.608 11.6657C150.608 9.68043 152.423 8.37846 154.878 8.39967C157.354 8.42093 159.147 9.57359 159.318 11.8364H157.524C157.397 10.7265 156.372 9.89385 154.878 9.89385C153.383 9.89385 152.337 10.5343 152.337 11.5376C152.337 12.733 153.49 12.8825 155.07 13.0745C157.546 13.3733 159.532 13.8429 159.532 16.255C159.532 18.283 157.588 19.5423 155.176 19.5423C152.359 19.5423 150.416 18.2188 150.373 15.8282H152.166Z" fill="white"/>
<path d="M144.796 10.1475H142.832V8.54645H144.796V5.49414H146.547V8.54666H148.627L149.233 10.1477H146.547V16.5393C146.547 17.4573 146.867 17.7986 147.806 17.7986H148.627L149.234 19.3996H147.635C145.543 19.3996 144.796 18.4817 144.796 16.5606V10.1475Z" fill="white"/>
<path d="M141.98 13.3379V19.4001H140.23V13.4445C140.23 11.1819 139.184 9.98655 137.284 9.98655C135.235 9.98655 133.996 11.5022 133.996 13.9568V19.4001H132.246V8.51379H133.762L133.996 9.98677C134.637 9.15436 135.747 8.38574 137.583 8.38574C140.038 8.38574 141.98 9.73061 141.98 13.3379Z" fill="white"/>
<path d="M120.334 13.9756C120.334 10.6669 122.426 8.4043 125.5 8.4043C128.574 8.4043 130.581 10.3468 130.666 13.5699C130.666 13.8048 130.645 14.061 130.623 14.3171H122.17V14.4664C122.234 16.537 123.536 17.9885 125.607 17.9885C127.144 17.9885 128.34 17.1774 128.702 15.7686H130.474C130.048 17.9458 128.254 19.5469 125.735 19.5469C122.469 19.5469 120.335 17.3055 120.335 13.9756H120.334ZM128.788 12.8656C128.617 10.9872 127.336 9.94116 125.521 9.94116C123.92 9.94116 122.447 11.0938 122.277 12.8656H128.788Z" fill="white"/>
<path d="M118.683 13.1615V19.4372H116.932V13.2682C116.932 11.1336 115.993 10.0237 114.349 10.0237C112.535 10.0237 111.425 11.3898 111.425 13.6097V19.4372H109.674V13.2682C109.674 11.1336 108.714 10.0237 107.048 10.0237C105.255 10.0237 104.167 11.5178 104.167 13.6951V19.4372H102.416V8.5509H103.932L104.167 10.0451C104.743 9.25541 105.661 8.42285 107.348 8.42285C108.863 8.42285 110.165 9.10589 110.784 10.4935C111.446 9.31957 112.62 8.42285 114.563 8.42285C116.826 8.42285 118.683 9.72504 118.683 13.1615Z" fill="white"/>
<path d="M90.8223 8.54215H92.6793L96.0311 17.2299L99.276 8.54215H101.133L95.7495 22.1945C95.0662 23.9448 94.6608 24.6279 93.1238 24.6279H91.5424V23.0269H92.59C93.5933 23.0269 93.7643 22.7707 94.1698 21.7461L95.0705 19.4924L90.8223 8.54215Z" fill="white"/>
<path d="M91.5415 17.8043V19.4054H90.6632C89.2111 19.4054 88.7202 18.7864 88.6988 17.719C88.016 18.7008 86.9273 19.5334 85.0483 19.5334C82.6576 19.5334 81.0352 18.3381 81.0352 16.3528C81.0352 14.1756 82.5508 12.9588 85.4116 12.9588H88.6139V12.2116C88.6139 10.8028 87.61 9.94896 85.9026 9.94896C84.3656 9.94896 83.3409 10.6747 83.1272 11.7847H81.377C81.6329 9.65013 83.3623 8.39062 85.9875 8.39062C88.7629 8.39062 90.364 9.77823 90.364 12.3182V17.0784C90.364 17.6547 90.5777 17.8041 91.0687 17.8041L91.5415 17.8043ZM88.6139 14.4317H85.2407C83.6823 14.4317 82.8072 15.008 82.8072 16.2462C82.8072 17.3135 83.725 18.0392 85.1766 18.0392C87.3541 18.0392 88.6139 16.7798 88.6139 14.9655V14.4317Z" fill="white"/>
<path d="M79.8848 13.9942C79.8848 17.324 77.6645 19.5654 74.6546 19.5654C72.8184 19.5654 71.5806 18.8184 70.9187 17.7724V24.6506H69.168V8.5509H70.6841L70.9187 10.3012C71.6447 9.29794 72.819 8.42285 74.6546 8.42285C77.6645 8.42285 79.8848 10.4508 79.8848 13.9942ZM78.0913 13.9942C78.0913 11.6247 76.6398 9.98119 74.4836 9.98119C72.3274 9.98119 70.8973 11.6249 70.8973 13.9514C70.8973 16.278 72.3488 18.0071 74.4836 18.0071C76.6185 18.0071 78.0913 16.3634 78.0913 13.9942Z" fill="white"/>
<path d="M65.9629 4.51758H62.9492V19.4799H65.9629V4.51758Z" fill="white"/>
<path d="M61.2919 16.9342V19.4791H59.7527C58.1922 19.4791 57.7007 18.7311 57.7232 17.6839C56.9533 18.9023 55.8421 19.6078 54.1315 19.6078C51.7589 19.6078 50.0488 18.4746 50.0488 16.3804C50.0488 14.0502 51.8022 12.725 55.0937 12.725H57.2744V12.1893C57.2744 11.2064 56.5687 10.5651 55.309 10.5651C54.1331 10.5651 53.3424 11.0994 53.2153 11.9115H50.3079C50.5216 9.77423 52.4882 8.36328 55.3955 8.36328C58.4732 8.36328 60.2474 9.73139 60.2474 12.3603V16.2505C60.2474 16.8275 60.4831 16.9344 60.9532 16.9344H61.2924L61.2919 16.9342ZM57.2733 14.7329H55.0712C53.8104 14.7329 53.0838 15.2458 53.0838 16.1651C53.0838 16.9344 53.7036 17.426 54.7079 17.426C56.2893 17.426 57.253 16.4431 57.2728 14.9456L57.2733 14.7329Z" fill="white"/>
<path d="M48.8877 13.9653C48.8877 17.3639 46.7497 19.6078 43.7788 19.6078C42.4544 19.6556 41.191 19.0487 40.4008 17.9849L40.1022 19.4813H37.4727V4.51758H40.4868V9.8825C41.2957 8.88957 42.5196 8.32892 43.8002 8.36487C46.7497 8.36487 48.8872 10.481 48.8872 13.9653M45.8308 13.9866C45.8308 12.1056 44.7624 10.8231 43.1158 10.8231C41.4693 10.8231 40.4436 12.1056 40.4436 13.9651C40.4436 15.8246 41.4693 17.1498 43.1158 17.1498C44.7618 17.1498 45.8308 15.8676 45.8308 13.9866Z" fill="white"/>
<path d="M24.2949 13.9849C24.2949 10.6076 26.5825 8.36328 30.0877 8.36328C33.5933 8.36328 35.881 10.6076 35.881 13.9849C35.881 17.3622 33.5934 19.6066 30.0882 19.6066C26.5825 19.6066 24.2949 17.3622 24.2949 13.9849ZM32.824 13.9849C32.824 12.1256 31.7764 10.8214 30.0877 10.8214C28.3989 10.8214 27.3727 12.1254 27.3727 13.9849C27.3727 15.8444 28.3989 17.1484 30.0877 17.1484C31.7764 17.1484 32.824 15.8444 32.824 13.9849Z" fill="white"/>
<path d="M22.709 4.51758H19.6953V19.4799H22.709V4.51758Z" fill="white"/>
<path d="M12.428 19.5203C11.4936 19.6149 10.6111 19.3942 10.2606 19.1029C10.1532 19.004 10.0806 18.8728 10.0538 18.7293C10.0111 18.5279 10.0806 18.3189 10.236 18.1835C10.5603 17.9712 10.9567 17.8998 11.335 17.9861C11.6582 18.028 11.984 18.0487 12.3099 18.0486C15.611 18.0486 17.7426 16.0492 17.7426 12.9542C17.7426 9.85906 15.6089 7.8584 12.3099 7.8584C9.011 7.8584 6.87725 9.85853 6.87725 12.9538C6.87725 14.6779 7.53918 16.0616 8.69581 16.9497C8.1386 17.2851 7.71014 17.7986 7.47988 18.4073C7.28702 19.1004 7.50873 19.8429 8.05045 20.3168L8.18614 20.4485L8.01626 20.534C6.75332 21.1689 6.14374 22.056 6.2992 23.0331C6.31523 23.1303 6.33875 23.2261 6.36973 23.3195C6.93389 25.2679 9.76535 26.081 12.5583 25.9938C14.1563 25.9438 18.5814 25.2551 18.6279 22.5009C18.6898 18.7274 14.3801 19.3281 12.6871 19.4965L12.428 19.5203ZM12.3099 10.315C13.6808 10.315 14.5324 11.3266 14.5324 12.9547C14.5324 14.5827 13.6808 15.5944 12.3099 15.5944C10.9391 15.5944 10.0864 14.5827 10.0864 12.9547C10.0864 11.3266 10.938 10.315 12.3099 10.315ZM10.2488 21.5393C10.3151 21.5304 10.4032 21.5172 10.5085 21.5012C12.3596 21.2276 14.9026 20.9537 15.6153 21.7583C15.8081 21.9814 15.8669 22.2908 15.7691 22.5691C15.5629 23.3214 13.9399 23.6529 12.4162 23.6529C12.014 23.6537 11.6117 23.6291 11.2121 23.5791C9.98867 23.4197 9.31178 23.0427 9.30697 22.5174C9.29415 21.9907 9.95608 21.578 10.2504 21.5382" fill="white"/>
<path d="M15.3858 5.66902C10.9153 4.03664 5.97677 6.33959 4.34467 10.81C4.04656 11.6161 3.8772 12.4695 3.8366 13.3297C3.7415 15.1585 4.22232 16.9738 5.21814 18.5181C5.63164 19.1413 5.46229 19.9812 4.83883 20.4011C4.21591 20.8143 3.37556 20.645 2.95565 20.0218C-0.600249 14.7047 0.828835 7.51816 6.13971 3.96214C7.10828 3.31189 8.17195 2.81742 9.28958 2.48553C11.6466 1.78787 14.1597 1.84207 16.4767 2.6481C17.3165 2.93936 17.7637 3.86054 17.4656 4.70043C17.1744 5.54034 16.2529 5.98737 15.413 5.68934L15.3794 5.6758" fill="url(#paint0_linear_7025_8416)"/>
<path d="M15.3858 5.66902C10.9153 4.03664 5.97677 6.33959 4.34467 10.81C4.04656 11.6161 3.8772 12.4695 3.8366 13.3297C3.7415 15.1585 4.22232 16.9738 5.21814 18.5181C5.63164 19.1413 5.46229 19.9812 4.83883 20.4011C4.21591 20.8143 3.37556 20.645 2.95565 20.0218C-0.600249 14.7047 0.828835 7.51816 6.13971 3.96214C7.10828 3.31189 8.17195 2.81742 9.28958 2.48553C11.6466 1.78787 14.1597 1.84207 16.4767 2.6481C17.3165 2.93936 17.7637 3.86054 17.4656 4.70043C17.1744 5.54034 16.2529 5.98737 15.413 5.68934L15.3794 5.6758" fill="url(#paint1_linear_7025_8416)"/>
<path d="M15.3858 5.66902C10.9153 4.03664 5.97677 6.33959 4.34467 10.81C4.04656 11.6161 3.8772 12.4695 3.8366 13.3297C3.7415 15.1585 4.22232 16.9738 5.21814 18.5181C5.63164 19.1413 5.46229 19.9812 4.83883 20.4011C4.21591 20.8143 3.37556 20.645 2.95565 20.0218C-0.600249 14.7047 0.828835 7.51816 6.13971 3.96214C7.10828 3.31189 8.17195 2.81742 9.28958 2.48553C11.6466 1.78787 14.1597 1.84207 16.4767 2.6481C17.3165 2.93936 17.7637 3.86054 17.4656 4.70043C17.1744 5.54034 16.2529 5.98737 15.413 5.68934L15.3794 5.6758" fill="url(#paint2_linear_7025_8416)"/>
<path d="M18.2919 4.45816C18.2919 5.4403 17.4927 6.23956 16.5102 6.23956C15.5283 6.23956 14.7285 5.4403 14.7285 4.45816C14.7285 3.47602 15.5283 2.67676 16.5102 2.67676C17.4927 2.67676 18.2919 3.47602 18.2919 4.45816Z" fill="white"/>
<defs>
<linearGradient id="paint0_linear_7025_8416" x1="6.93893" y1="2.16223" x2="15.4573" y2="4.22243" gradientUnits="userSpaceOnUse">
<stop stop-color="white"/>
<stop offset="1" stop-color="white" stop-opacity="0"/>
</linearGradient>
<linearGradient id="paint1_linear_7025_8416" x1="4.46808" y1="17.8474" x2="11.2482" y2="9.26469" gradientUnits="userSpaceOnUse">
<stop stop-color="white"/>
<stop offset="1" stop-color="white" stop-opacity="0"/>
</linearGradient>
<linearGradient id="paint2_linear_7025_8416" x1="4.70635" y1="10.2215" x2="11.0769" y2="5.77703" gradientUnits="userSpaceOnUse">
<stop stop-color="white" stop-opacity="0.2"/>
<stop offset="1" stop-color="white" stop-opacity="0"/>
</linearGradient>
</defs>
</svg>
